<svg width="154" height="23" viewBox="0 0 154 23" fill="none" xmlns="http://www.w3.org/2000/svg">
<path fill-rule="evenodd" clip-rule="evenodd" d="M11.9078 7.84261C12.0368 8.33911 12.54 8.59517 13.0509 8.42701C17.241 7.14883 21.441 6.27427 25.7748 5.63802C26.2717 5.57214 26.5434 5.06303 26.3607 4.55233C25.9761 3.4764 25.7814 2.93977 25.3881 1.86971C25.2211 1.41547 24.7696 1.1175 24.3074 1.16722C20.0722 1.68485 15.9801 2.44931 11.8794 3.62681C11.3453 3.79302 11.0175 4.38576 11.152 4.91174C11.4517 6.08231 11.6028 6.66849 11.9078 7.84261Z" fill="#2C2A29"/>
<path fill-rule="evenodd" clip-rule="evenodd" d="M28.8891 8.43092C28.7264 7.94987 28.2852 7.62846 27.8485 7.6851C21.2181 8.5229 14.7617 10.1477 8.63932 12.8332C8.19275 13.0425 7.92487 13.5992 8.01866 14.0899C8.25847 15.345 8.37962 15.9732 8.62458 17.2306C8.72938 17.7683 9.236 18.0157 9.73552 17.774C15.9544 14.9509 22.5264 13.1535 29.268 12.0817C29.6967 12.0121 29.9152 11.5252 29.7512 11.0237C29.4114 9.98416 29.2389 9.46547 28.8891 8.43092Z" fill="#2C2A29"/>
<path fill-rule="evenodd" clip-rule="evenodd" d="M28.8705 15.4396C28.7062 14.9262 28.2258 14.5912 27.7693 14.6844C23.6295 15.5746 19.5826 16.6476 15.5739 18.0132C15.0655 18.1981 14.7791 18.7297 14.9129 19.2189C15.2314 20.384 15.3918 20.9675 15.7144 22.1365C15.8659 22.6852 16.4876 22.9663 17.0603 22.75C21.0678 21.3276 25.1153 20.0855 29.2513 19.0895C29.6482 18.9939 29.8434 18.533 29.6958 18.0571C29.3702 17.0078 29.2051 16.4841 28.8705 15.4396Z" fill="#2C2A29"/>
<path fill-rule="evenodd" clip-rule="evenodd" d="M44.8549 14.29C44.8549 12.8785 43.9489 12.2925 42.1637 12.2925H40.0321V16.2877H42.1371C43.869 16.2877 44.8549 15.5952 44.8549 14.29ZM41.7374 5.28749C41.178 5.28749 40.5918 5.34076 40.0321 5.42067V8.96311H41.8441C43.4427 8.96311 44.1887 8.2972 44.1887 7.15184C44.1887 6.05976 43.416 5.28749 41.7374 5.28749ZM49.2244 14.4764C49.2244 17.5929 46.0804 19.6703 42.5101 19.6703H35.9555V2.46405C38.1404 2.14459 39.7924 1.93133 41.7374 1.93133C45.3343 1.93133 48.212 3.60941 48.212 6.53939C48.212 8.21729 47.3327 9.33601 45.7607 9.94865C48.1854 10.641 49.2244 12.106 49.2244 14.4764Z" fill="#2C2A29"/>
<path fill-rule="evenodd" clip-rule="evenodd" d="M58.7908 16.2611V13.9704H58.0181C56.2064 13.9704 54.5543 14.3699 54.5543 15.6218C54.5543 16.5805 55.1938 16.927 56.4995 16.927C57.5386 16.927 58.3911 16.6073 58.7908 16.2611ZM62.7075 11.2803V18.2852C61.2688 19.3773 58.9507 19.9633 55.8067 19.9633C53.0091 19.9633 50.6909 18.818 50.6909 16.2877C50.6909 12.4789 54.3945 11.5466 58.7908 11.4135C58.7109 9.76219 58.0447 9.33601 56.5792 9.33601C55.8067 9.33601 53.755 9.68228 53.4887 9.68228C52.849 9.68228 52.343 9.28274 51.9166 8.11075L51.5967 7.15184C53.2487 6.53939 54.8741 6.11321 56.6327 6.11321C60.4694 6.11321 62.7075 7.55139 62.7075 11.2803Z" fill="#2C2A29"/>
<path fill-rule="evenodd" clip-rule="evenodd" d="M77.3799 10.1882V19.6703H73.3832V11.5999C73.3832 10.1882 72.4507 9.46919 70.8255 9.46919C70.2128 9.46919 69.6266 9.5491 69.1202 9.68228V19.6703H65.0971L65.1235 7.81775C66.8024 6.69903 69.5198 6.0864 71.7314 6.0864C74.7956 6.0864 77.3799 7.60466 77.3799 10.1882Z" fill="#2C2A29"/>
<path fill-rule="evenodd" clip-rule="evenodd" d="M80.1336 6.4593C80.6931 6.21958 81.3859 6.08639 82.1586 6.08639C82.9312 6.08639 83.5973 6.21958 84.1569 6.4593V19.6703H80.1336V6.4593ZM80.0803 2.25096C80.0803 1.13242 81.0129 0.20015 82.1318 0.20015C83.2778 0.20015 84.2102 1.10578 84.2102 2.25096C84.2102 3.34304 83.2778 4.30195 82.1318 4.30195C81.0129 4.30195 80.0803 3.39632 80.0803 2.25096Z" fill="#2C2A29"/>
<path fill-rule="evenodd" clip-rule="evenodd" d="M90.6049 16.8737C91.6174 16.8737 92.55 16.5008 92.55 15.8349C92.55 15.169 91.9372 14.8494 90.4718 14.4498C88.0738 13.8372 86.8214 12.399 86.8214 10.5346C86.8214 7.49812 89.2993 5.98003 92.9497 5.98003C94.2551 5.98003 95.7739 6.27303 96.3866 6.53939C96.3866 7.55139 96.0137 8.93647 95.4275 9.70892C94.5482 9.38929 93.6956 9.20283 92.9762 9.20283C91.6707 9.20283 90.8447 9.52247 90.8447 10.2416C90.8447 10.7742 91.5108 11.2272 92.8165 11.6798C95.3742 12.5322 96.6799 13.4112 96.6799 15.462C96.6799 18.4983 94.3884 19.99 90.6582 19.99C89.2728 19.99 88.4466 19.8834 86.9546 19.6437C86.7948 19.0843 86.7148 18.5251 86.7148 17.9392C86.7148 17.2464 86.8214 16.6606 87.0346 16.1545C88.5001 16.634 89.6725 16.8737 90.6049 16.8737Z" fill="#2C2A29"/>
<path fill-rule="evenodd" clip-rule="evenodd" d="M106.752 16.341C107.178 16.9801 107.311 18.0455 107.311 19.5904C106.805 19.8035 105.606 19.9633 104.434 19.9633C101.183 19.9633 99.691 19.0311 99.691 15.9414V9.52247H97.6927C97.6927 6.88548 100.943 3.42295 103.688 2.78368V6.32612H107.631C107.631 7.28502 107.338 8.82992 106.645 9.52247H103.688V14.9559C103.688 16.2344 104.007 16.6073 105.206 16.6073C105.793 16.6073 106.219 16.5008 106.752 16.341Z" fill="#2C2A29"/>
<path fill-rule="evenodd" clip-rule="evenodd" d="M130.359 10.1882V19.6703H126.389V11.5999C126.389 10.1882 125.483 9.46919 123.884 9.46919C123.138 9.46919 122.419 9.62901 121.833 9.86874C122.046 10.4546 122.153 11.094 122.153 11.7862V19.6703H118.183V11.5999C118.183 10.1882 117.277 9.46919 115.678 9.46919C115.065 9.46919 114.479 9.5491 113.973 9.68228V19.6703H109.949L109.976 7.81775C111.575 6.69903 114.079 6.0864 116.184 6.0864C117.863 6.0864 119.301 6.64576 120.341 7.55139C121.699 6.67239 123.591 6.0864 125.19 6.0864C128.094 6.0864 130.359 7.63129 130.359 10.1882Z" fill="#2C2A29"/>
<path fill-rule="evenodd" clip-rule="evenodd" d="M141.977 12.9848C141.977 10.801 140.911 9.52247 139.046 9.52247C137.234 9.52247 136.115 10.801 136.115 12.9848C136.115 15.2755 137.207 16.4742 139.046 16.4742C140.911 16.4742 141.977 15.2755 141.977 12.9848ZM132.092 12.9848C132.092 8.72338 134.969 6.05976 139.046 6.05976C143.282 6.05976 146 8.82993 146 12.9848C146 17.2732 143.256 19.9367 139.046 19.9367C134.809 19.9367 132.092 17.1933 132.092 12.9848Z" fill="#2C2A29"/>
</svg>
